# xmcd
#
# Track frame offsets:
#	150
#	15724
#	31447
#
# Disc length: 617 seconds
#
# Revision: 0
# Processed by: cddbd v1.5.1PL2 Copyright (c) Steve Scherf et al.
# Submitted via: audiograbber 1.83.01
#
DISCID=1b026703
DTITLE=DRAGAN COLAKOVIC - Singl
DYEAR=2002
DGENRE=Pop
TTITLE0=Ne pijem crveno
TTITLE1=Prsten
TTITLE2=Obrisi suze
EXTD=
EXTT0=
EXTT1=
EXTT2=
PLAYORDER=
